<?xml version="1.0" standalone="no"?>
<!DOCTYPE svg PUBLIC "-//W3C//DTD SVG 20010904//EN"
 "http://www.w3.org/TR/2001/REC-SVG-20010904/DTD/svg10.dtd">
<svg version="1.0" xmlns="http://www.w3.org/2000/svg"
 width="1080.000000pt" height="1080.000000pt" viewBox="0 0 1080.000000 1080.000000"
 preserveAspectRatio="xMidYMid meet">

<g transform="translate(0.000000,1080.000000) scale(0.100000,-0.100000)"
fill="#000000" stroke="none">
<path d="M5078 7033 c12 -2 30 -2 40 0 9 3 -1 5 -23 4 -22 0 -30 -2 -17 -4z"/>
<path d="M5348 7033 c111 -2 293 -2 405 0 111 1 20 2 -203 2 -223 0 -314 -1
-202 -2z"/>
<path d="M5951 7003 c-14 -40 -123 -306 -146 -358 -7 -16 -32 -77 -55 -135
-23 -58 -53 -129 -66 -158 -13 -29 -24 -55 -24 -58 0 -3 -6 -20 -14 -37 -29
-64 -153 -363 -161 -387 -4 -14 -14 -34 -21 -45 -19 -26 -18 -34 5 -28 14 4
22 -6 39 -49 12 -29 29 -83 39 -120 16 -65 33 -81 33 -32 0 13 5 24 10 24 6 0
10 7 10 16 0 18 43 134 65 177 8 16 15 34 15 40 0 11 37 105 75 192 18 40 39
90 60 145 17 45 26 67 83 210 17 41 40 101 52 133 12 31 26 60 31 63 5 3 9 15
9 27 0 12 14 51 31 86 23 46 34 60 40 50 15 -24 10 -3 -10 45 -11 24 -34 88
-51 140 -18 53 -33 96 -34 96 -1 0 -8 -17 -15 -37z"/>
<path d="M4565 5859 c-4 -6 -5 -12 -2 -15 2 -3 7 2 10 11 7 17 1 20 -8 4z"/>
<path d="M5432 5755 c-17 -37 -14 -45 4 -12 9 16 14 31 11 33 -2 2 -9 -7 -15
-21z"/>
<path d="M5400 5679 c-7 -11 -10 -23 -7 -25 2 -2 9 7 15 21 14 30 7 33 -8 4z"/>
<path d="M6420 5681 c0 -6 4 -13 10 -16 6 -3 7 1 4 9 -7 18 -14 21 -14 7z"/>
<path d="M5376 5625 c-9 -26 -7 -32 5 -12 6 10 9 21 6 23 -2 3 -7 -2 -11 -11z"/>
<path d="M5345 5549 c-4 -6 -5 -12 -2 -15 2 -3 7 2 10 11 7 17 1 20 -8 4z"/>
<path d="M5577 5553 c-4 -3 -7 -11 -7 -17 0 -6 5 -5 12 2 6 6 9 14 7 17 -3 3
-9 2 -12 -2z"/>
<path d="M5326 5505 c-9 -26 -7 -32 5 -12 6 10 9 21 6 23 -2 3 -7 -2 -11 -11z"/>
<path d="M5582 5515 c0 -5 6 -26 13 -45 7 -19 14 -28 14 -20 0 8 -6 29 -14 45
-7 17 -13 26 -13 20z"/>
<path d="M6486 5487 c3 -10 9 -15 12 -12 3 3 0 11 -7 18 -10 9 -11 8 -5 -6z"/>
<path d="M5306 5455 c-9 -26 -7 -32 5 -12 6 10 9 21 6 23 -2 3 -7 -2 -11 -11z"/>
<path d="M5611 5425 c1 -19 18 -51 18 -35 0 8 -4 22 -9 30 -5 8 -9 11 -9 5z"/>
<path d="M5262 5345 c-17 -37 -14 -45 4 -12 9 16 14 31 11 33 -2 2 -9 -7 -15
-21z"/>
<path d="M5641 5335 c1 -19 18 -51 18 -35 0 8 -4 22 -9 30 -5 8 -9 11 -9 5z"/>
<path d="M5237 5293 c-4 -3 -7 -13 -7 -22 1 -13 3 -13 11 2 11 19 8 33 -4 20z"/>
<path d="M5660 5273 c0 -5 5 -15 10 -23 8 -12 10 -11 10 8 0 12 -4 22 -10 22
-5 0 -10 -3 -10 -7z"/>
<path d="M5205 5209 c-4 -6 -5 -12 -2 -15 2 -3 7 2 10 11 7 17 1 20 -8 4z"/>
<path d="M5695 5170 c12 -40 26 -59 19 -25 -4 17 -11 35 -16 40 -7 7 -8 1 -3
-15z"/>
<path d="M5174 5133 c-7 -23 -33 -89 -50 -128 -7 -16 -44 -106 -82 -200 -38
-93 -81 -195 -95 -226 l-24 -55 26 4 c17 2 65 -13 130 -42 81 -36 105 -43 115
-33 11 10 10 14 -3 24 -10 8 -12 15 -6 20 6 5 19 33 29 63 11 30 30 77 43 103
14 26 27 64 30 85 3 20 11 44 18 52 8 8 23 44 34 80 26 81 55 130 78 131 10 0
-38 19 -107 42 -120 40 -125 43 -125 70 1 31 -3 35 -11 10z"/>
<path d="M5721 5098 c-1 -3 15 -43 34 -88 37 -86 43 -116 24 -122 -6 -2 37
-22 97 -45 60 -22 280 -105 489 -183 334 -125 434 -164 456 -176 3 -2 -8 39
-25 91 -26 83 -31 92 -43 77 -10 -12 -16 -13 -19 -5 -3 7 -11 10 -18 7 -7 -2
-38 7 -69 21 -32 14 -64 25 -72 25 -8 0 -18 7 -23 16 -5 8 -27 18 -50 21 -23
3 -42 10 -42 14 0 5 -6 9 -12 9 -7 1 -31 9 -53 20 -22 11 -44 19 -48 20 -5 0
-32 11 -60 24 -29 13 -72 31 -97 41 -25 9 -69 28 -98 41 -29 13 -59 24 -66 24
-8 0 -27 6 -43 14 -78 39 -144 66 -161 66 -11 0 -25 7 -32 15 -7 8 -18 15 -24
15 -7 0 -20 15 -29 33 -8 17 -16 29 -16 25z"/>
<path d="M5450 5004 c0 -7 52 -25 57 -20 2 2 -10 8 -26 14 -17 6 -31 9 -31 6z"/>
<path d="M6650 4991 c0 -6 4 -13 10 -16 6 -3 7 1 4 9 -7 18 -14 21 -14 7z"/>
<path d="M5530 4972 c8 -5 26 -13 40 -16 17 -5 20 -4 10 2 -8 5 -26 13 -40 16
-17 5 -20 4 -10 -2z"/>
<path d="M5610 4944 c0 -7 52 -25 57 -20 2 2 -10 8 -26 14 -17 6 -31 9 -31 6z"/>
<path d="M5681 4916 c8 -8 79 -35 79 -30 0 3 -16 12 -35 20 -33 14 -53 18 -44
10z"/>
<path d="M4051 4628 c0 -10 -1 -21 0 -24 0 -4 -4 -10 -10 -14 -6 -3 -24 -43
-40 -88 -15 -45 -34 -89 -41 -97 -10 -13 -9 -15 8 -15 16 0 413 -144 592 -215
19 -7 63 -24 98 -37 34 -12 62 -26 62 -30 0 -21 33 10 49 46 51 114 60 139 55
148 -4 7 -9 6 -13 -1 -5 -8 -23 -4 -57 12 -27 13 -71 32 -99 42 -27 9 -59 21
-70 25 -11 5 -31 12 -45 16 -14 3 -52 19 -85 34 -33 15 -98 42 -145 58 -47 17
-121 47 -165 66 -67 30 -81 40 -86 63 -4 15 -7 20 -8 11z"/>
<path d="M6831 4454 c0 -11 3 -14 6 -6 3 7 2 16 -1 19 -3 4 -6 -2 -5 -13z"/>
<path d="M6856 4377 c3 -10 9 -15 12 -12 3 3 0 11 -7 18 -10 9 -11 8 -5 -6z"/>
<path d="M7055 3760 c-3 -5 -1 -10 4 -10 6 0 11 5 11 10 0 6 -2 10 -4 10 -3 0
-8 -4 -11 -10z"/>
<path d="M7000 3736 c0 -2 7 -7 16 -10 8 -3 12 -2 9 4 -6 10 -25 14 -25 6z"/>
</g>
</svg>
